<svg preserveAspectRatio="none" width="100%" height="100%" overflow="visible" style="display: block;" viewBox="0 0 32.0719 28.4909" fill="none" xmlns="http://www.w3.org/2000/svg">
<g id="Layer_1" clip-path="url(#clip0_0_32)">
<path id="Vector" d="M25.4908 6.70246C25.4908 9.55955 22.7671 11.6151 20.0179 10.822C19.8033 10.7601 19.6844 10.7916 19.5401 10.9578C16.7037 14.2248 13.8623 17.4857 11.0174 20.7454C10.8961 20.8848 10.8852 20.9891 10.9616 21.1589C11.9293 23.3066 11.0271 25.7999 8.92548 26.8088C6.81904 27.8202 4.32697 26.9737 3.22464 24.8831C3.16037 24.7618 3.02333 24.6454 2.89479 24.5981C1.02119 23.9129 -0.161181 22.1012 0.0182967 20.1657C0.206263 18.149 1.70999 16.564 3.73276 16.2778C4.3391 16.1917 4.94666 16.2293 5.5336 16.4258C5.70701 16.484 5.8113 16.4525 5.93378 16.3106C8.77026 13.0448 11.6104 9.78148 14.4565 6.5242C14.6045 6.35564 14.613 6.23194 14.5245 6.03306C13.5798 3.92177 14.4869 1.43819 16.5606 0.432876C18.644 -0.577292 21.1494 0.23642 22.2274 2.28465C22.3342 2.48595 22.4627 2.59873 22.6737 2.67392C24.3824 3.28875 25.492 4.88465 25.492 6.70246H25.4908ZM24.2308 6.69155C24.2247 5.3297 23.3662 4.16067 22.0528 3.80172C21.615 3.68166 21.3725 3.46338 21.1918 3.04621C20.5078 1.46366 18.6064 0.810021 17.0675 1.59099C15.514 2.37924 14.9392 4.30741 15.8099 5.81114C16.1495 6.39929 16.1361 6.5048 15.685 7.02383C12.6436 10.5139 9.60337 14.0053 6.56317 17.4966C6.18117 17.9344 6.02837 17.9732 5.50207 17.75C3.85402 17.0527 1.98891 17.8859 1.42138 19.5715C0.856263 21.2511 1.84824 23.058 3.58238 23.48C3.9086 23.56 4.10869 23.7177 4.23602 24.0342C4.9127 25.7222 6.82389 26.4547 8.42221 25.6531C10.023 24.8503 10.5735 22.8894 9.63611 21.3311C9.37417 20.8957 9.38994 20.7126 9.7307 20.3209C12.7903 16.8054 15.8511 13.2898 18.912 9.77541C19.3437 9.28064 19.4431 9.25881 20.0458 9.50741C22.0504 10.3345 24.2429 8.85983 24.2332 6.69276L24.2308 6.69155Z" fill="var(--fill-0, #FFAF42)"/>
<path id="Vector_2" d="M24.1967 28.4909C19.8432 28.4715 16.3349 24.9353 16.3543 20.5841C16.3725 16.2706 19.9099 12.7635 24.2283 12.7793C28.583 12.7938 32.095 16.33 32.0719 20.6787C32.0501 24.9898 28.5006 28.5103 24.1967 28.4909ZM28.8935 25.2542C31.4995 22.7039 31.3952 18.4122 28.8935 16.0147C26.1007 18.451 22.1861 18.3358 19.5327 16.0172C16.8551 18.5674 17.0928 23.0144 19.5449 25.2372C22.2783 22.8749 26.1237 22.864 28.8935 25.253V25.2542ZM27.8845 26.0946C25.6762 24.1337 22.3086 24.4041 20.5502 26.1055C22.579 27.5923 25.8824 27.5935 27.8845 26.0946ZM27.8809 15.1683C25.5707 13.5093 22.2637 13.8198 20.5575 15.1925C22.653 17.0213 25.8678 16.9594 27.8809 15.1683Z" fill="var(--fill-0, #FFAF42)"/>
</g>
<defs>
<clipPath id="clip0_0_32">
<rect width="32.0719" height="28.4909" fill="white"/>
</clipPath>
</defs>
</svg>
