<svg preserveAspectRatio="none" width="100%" height="100%" overflow="visible" style="display: block;" viewBox="0 0 35.588 22.2461" fill="none" xmlns="http://www.w3.org/2000/svg">
<g id="Layer_1" clip-path="url(#clip0_0_25)">
<path id="Vector" d="M0 15.7794C0.089782 15.1417 0.166361 14.5 0.271987 13.865C0.767108 10.8903 1.56722 8.00142 2.64989 5.18649C3.06051 4.11703 3.81045 3.36576 4.75184 2.77294C6.39036 1.74045 8.20845 1.17403 10.082 0.777931C14.1618 -0.0868803 18.2772 -0.191186 22.4112 0.272248C24.8221 0.542914 27.1868 1.01559 29.4142 2.01771C29.9806 2.27254 30.5245 2.58809 31.0514 2.92082C31.9795 3.50836 32.6212 4.32564 32.9909 5.37662C34.1343 8.62329 35.015 11.9347 35.4863 15.349C35.5233 15.6118 35.5246 15.8811 35.5616 16.1439C35.6923 17.0641 35.3081 17.7612 34.6281 18.3329C33.5653 19.2281 32.3136 19.7668 31.0236 20.225C28.5705 21.0964 26.0315 21.5889 23.4542 21.9005C20.7238 22.2292 17.9854 22.3362 15.2405 22.1724C11.3917 21.9427 7.59714 21.4001 3.97945 19.9992C3.07107 19.6467 2.21286 19.1463 1.36917 18.6511C0.720896 18.2696 0.236338 17.7058 0 16.9638C0 16.5703 0 16.1769 0 15.7821L0 15.7794ZM17.3411 21.132C19.8709 21.1281 21.9477 20.996 24.014 20.7095C26.5174 20.3623 28.9877 19.8592 31.3339 18.9007C32.1934 18.5495 33.0041 18.0649 33.8095 17.5949C34.3165 17.2991 34.5515 16.8199 34.4525 16.2072C34.4103 15.9458 34.4129 15.6765 34.3759 15.4124C33.9191 12.1723 33.0701 9.03127 32.0192 5.93775C31.6627 4.88678 31.0012 4.14872 30.0717 3.59946C28.9573 2.94062 27.7558 2.50095 26.5147 2.16163C24.2372 1.53844 21.9108 1.25457 19.5579 1.1595C16.2122 1.02483 12.8943 1.22024 9.63176 2.023C8.02096 2.41909 6.45638 2.9459 5.07136 3.89917C4.42704 4.3428 3.91212 4.89338 3.66918 5.65652C3.1186 7.38351 2.52446 9.09861 2.03726 10.8441C1.54478 12.6054 1.23846 14.4063 1.11039 16.2376C1.06814 16.8449 1.29656 17.2622 1.75735 17.5988C1.88806 17.6939 2.01613 17.7943 2.15213 17.8814C3.35362 18.6459 4.67922 19.1265 6.03256 19.5318C9.86545 20.6792 13.7987 21.1056 17.3424 21.132H17.3411Z" fill="var(--fill-0, #FFAF42)"/>
<path id="Vector_2" d="M17.7702 8.35104C15.1454 8.32068 12.514 8.15431 9.95656 7.42814C9.18681 7.20896 8.41838 6.90133 7.72917 6.49599C6.29794 5.65626 6.31246 4.40592 7.71465 3.5147C8.8488 2.79512 10.1322 2.48353 11.43 2.23795C14.9025 1.58175 18.3987 1.52893 21.9042 1.89598C23.5268 2.06631 25.1416 2.32245 26.6666 2.93772C27.2171 3.15953 27.7638 3.44736 28.2311 3.80913C29.1422 4.51418 29.1276 5.4767 28.2444 6.21608C27.4059 6.91849 26.3893 7.24197 25.3568 7.51C22.8759 8.15299 20.3396 8.322 17.7689 8.35104H17.7702ZM9.57366 6.0682C12.7319 7.58658 23.5242 7.57205 26.0011 6.05764C20.5257 4.6515 15.049 4.65546 9.57366 6.0682ZM18.0145 2.78456C15.931 2.79248 14.0839 2.89547 12.2552 3.20971C10.9785 3.42888 9.70966 3.69162 8.54645 4.29633C8.29559 4.42704 8.05925 4.61189 7.87309 4.8205C7.80311 4.8984 7.8546 5.14662 7.92986 5.26809C7.98267 5.35391 8.20053 5.42653 8.29295 5.3856C10.214 4.53003 12.2605 4.23824 14.3242 4.04811C17.0401 3.79857 19.756 3.83554 22.4627 4.17882C24.1065 4.38743 25.7265 4.69507 27.2554 5.37239C27.3531 5.41597 27.5683 5.36843 27.6251 5.28921C27.7083 5.17303 27.7677 4.95517 27.7123 4.84162C27.6317 4.67922 27.4601 4.52343 27.2911 4.45081C26.6045 4.15374 25.9219 3.82498 25.205 3.62561C22.7795 2.9496 20.2868 2.80701 18.0132 2.78192L18.0145 2.78456Z" fill="var(--fill-0, #FFAF42)"/>
<path id="Vector_3" d="M17.7834 19.4946C17.1866 19.4602 16.6057 19.4589 16.034 19.3876C14.8457 19.2397 14.2925 18.47 14.4985 17.2949C14.7269 15.9918 15.4082 14.9817 16.5291 14.2859C17.3345 13.7855 18.1769 13.7617 18.9928 14.2555C20.2287 15.0028 20.9482 16.1106 21.1054 17.5458C21.2202 18.5928 20.6617 19.2371 19.5315 19.3863C18.9493 19.4629 18.3565 19.4629 17.7834 19.4972V19.4946ZM17.7808 18.3815C18.3208 18.3485 18.8753 18.3366 19.4246 18.2746C19.9448 18.2152 20.0808 18.0105 19.9884 17.4956C19.822 16.5635 19.3375 15.8294 18.5611 15.2893C18.0475 14.9315 17.5286 14.9315 17.015 15.2893C16.2387 15.8294 15.7528 16.5608 15.5851 17.4943C15.49 18.0237 15.6287 18.2205 16.1766 18.2812C16.7034 18.3393 17.2342 18.3498 17.7795 18.3829L17.7808 18.3815Z" fill="var(--fill-0, #FFAF42)"/>
<path id="Vector_4" d="M19.4536 11.133C19.4497 12.04 18.7024 12.7873 17.7953 12.79C16.8737 12.7939 16.1172 12.0361 16.1211 11.1145C16.1251 10.1942 16.8909 9.44559 17.8138 9.45747C18.7195 9.46936 19.4576 10.2233 19.4536 11.133ZM18.3406 11.1224C18.3406 10.8214 18.0871 10.5705 17.7861 10.5705C17.485 10.5705 17.2342 10.824 17.2342 11.125C17.2342 11.4261 17.4877 11.6783 17.7887 11.6769C18.0897 11.6769 18.3419 11.4234 18.3406 11.1224Z" fill="var(--fill-0, #FFAF42)"/>
<path id="Vector_5" d="M15.5626 13.3604C15.5574 14.2674 14.8087 15.0121 13.9017 15.0147C12.9801 15.0174 12.2249 14.2582 12.2302 13.3353C12.2354 12.415 13.0025 11.6677 13.9254 11.6809C14.8312 11.6941 15.5679 12.4493 15.5626 13.359V13.3604ZM14.4496 13.363C14.4575 13.0633 14.212 12.8045 13.9109 12.7953C13.6112 12.7873 13.3524 13.0329 13.3432 13.3339C13.3353 13.635 13.5808 13.8938 13.8819 13.9017C14.1816 13.9096 14.4417 13.6627 14.4496 13.363Z" fill="var(--fill-0, #FFAF42)"/>
<path id="Vector_6" d="M23.3446 13.3405C23.3486 14.2621 22.5894 15.02 21.6678 15.0147C20.7608 15.0094 20.0148 14.2621 20.0121 13.3551C20.0095 12.4322 20.766 11.6769 21.6889 11.6822C22.596 11.6875 23.342 12.4335 23.3446 13.3405ZM22.2316 13.3577C22.2369 13.058 21.9887 12.8005 21.6876 12.7953C21.3866 12.79 21.1305 13.0369 21.1252 13.3379C21.1199 13.6389 21.3668 13.8951 21.6678 13.9004C21.9675 13.9056 22.225 13.6574 22.2303 13.3564L22.2316 13.3577Z" fill="var(--fill-0, #FFAF42)"/>
</g>
<defs>
<clipPath id="clip0_0_25">
<rect width="35.588" height="22.2461" fill="white"/>
</clipPath>
</defs>
</svg>
