<svg preserveAspectRatio="none" width="100%" height="100%" overflow="visible" style="display: block;" viewBox="0 0 36 26" fill="none" xmlns="http://www.w3.org/2000/svg">
<g id="Layer_1" clip-path="url(#clip0_0_20)">
<path id="Vector" d="M35.9817 12.9983C35.9817 14.1624 35.9363 15.328 35.9913 16.4894C36.0903 18.541 35.2172 20.1118 33.7611 21.4157C32.0396 22.9586 29.995 23.8964 27.8321 24.5756C23.6522 25.8893 19.3691 26.2135 15.0255 25.8753C12.1339 25.6503 9.30827 25.1025 6.60092 24.0208C4.84643 23.3192 3.20331 22.4206 1.84895 21.0538C0.630706 19.8267 -0.033414 18.3816 0.00646071 16.59C0.0587103 14.2365 0.0738352 11.8802 0.00233574 9.52817C-0.0609138 7.44442 0.79433 5.85541 2.27932 4.54171C3.93756 3.07429 5.89005 2.16169 7.95941 1.48807C11.7324 0.261022 15.6085 -0.126099 19.5506 0.0332213C22.6856 0.160398 25.7573 0.642553 28.7204 1.72146C30.7072 2.44399 32.5717 3.38874 34.1048 4.90368C35.3547 6.13911 36.0656 7.60235 35.9913 9.42615C35.9432 10.6141 35.9817 11.8062 35.9817 12.9969V12.9983ZM18.0326 1.57891C16.8006 1.65717 15.5631 1.69491 14.3352 1.81929C11.6856 2.08902 9.09927 2.65363 6.63804 3.71856C5.1558 4.36003 3.76431 5.14825 2.67394 6.39207C1.16008 8.11804 1.2852 10.2255 2.99706 11.7545C3.07406 11.8229 3.27069 11.8565 3.34494 11.8062C5.48855 10.3597 7.86591 9.50022 10.3588 8.94819C15.2799 7.8595 20.2161 7.84133 25.1523 8.83778C27.6781 9.34788 30.0968 10.1752 32.2954 11.5756C32.866 11.9389 32.8701 11.9501 33.3087 11.44C34.0966 10.526 34.5833 9.50581 34.3083 8.24941C34.1117 7.35358 33.6085 6.63804 32.9705 6.01194C31.7687 4.8324 30.3154 4.07354 28.7768 3.47399C25.3187 2.12954 21.7148 1.6418 18.0312 1.57612L18.0326 1.57891ZM4.51368 12.9913C4.6498 13.0849 4.73093 13.1464 4.81618 13.1995C6.54867 14.2561 8.4324 14.9255 10.389 15.3811C15.2634 16.5173 20.1556 16.5411 25.0478 15.5139C27.2189 15.0583 29.3103 14.3553 31.2215 13.1744C31.3026 13.1241 31.3727 13.057 31.5309 12.934C30.666 12.5077 29.8905 12.0787 29.0779 11.7349C26.4874 10.6406 23.7635 10.1137 20.9792 9.87895C16.9532 9.54075 12.9809 9.83423 9.08552 10.9607C7.49466 11.4205 5.96842 12.0438 4.5123 12.9913H4.51368ZM34.3812 12.7104C33.3844 13.7655 32.2789 14.5174 31.0771 15.1295C27.8761 16.7563 24.4442 17.4704 20.9104 17.7513C19.7843 17.8408 18.6486 17.8184 17.5225 17.9218C15.8876 18.0714 14.7299 19.5724 14.8055 21.3556C14.8756 23.0047 16.1557 24.3352 17.7576 24.3576C21.3188 24.4051 24.8099 23.9397 28.1841 22.742C29.9483 22.1159 31.623 21.3053 32.9897 19.9623C33.7364 19.2272 34.3303 18.3761 34.3675 17.2888C34.4197 15.799 34.3798 14.3064 34.3798 12.7118L34.3812 12.7104ZM14.4494 17.7038C13.3562 17.5333 12.2851 17.4006 11.2278 17.1965C8.59465 16.6892 6.05504 15.8954 3.77256 14.4238C3.02319 13.9402 2.33982 13.3519 1.61107 12.7998C1.61107 12.9032 1.61107 13.0304 1.61107 13.159C1.61107 14.3763 1.62482 15.5921 1.60695 16.8094C1.59182 17.7513 1.88607 18.5717 2.44569 19.3068C3.12631 20.2012 3.99806 20.8637 4.95368 21.4171C7.23204 22.7378 9.71527 23.4324 12.2796 23.8684C12.886 23.9718 13.4965 24.0431 14.1524 24.1353C12.7925 21.8727 12.875 19.754 14.4521 17.7038H14.4494Z" fill="var(--fill-0, #FFAF42)"/>
<path id="Vector_2" d="M26.0079 21.1128C25.5679 21.1198 25.2036 20.7662 25.1939 20.326C25.1857 19.8941 25.5487 19.5126 25.9791 19.5056C26.4149 19.4986 26.7807 19.855 26.7917 20.2966C26.8013 20.7354 26.4466 21.1072 26.0079 21.1128Z" fill="var(--fill-0, #FFAF42)"/>
<path id="Vector_3" d="M18.7906 21.1281C18.7879 21.574 18.4304 21.9373 17.9959 21.9345C17.5614 21.9317 17.2094 21.5656 17.2121 21.1184C17.2149 20.6753 17.5751 20.3078 18.0055 20.3106C18.4372 20.3134 18.792 20.6837 18.7906 21.1281Z" fill="var(--fill-0, #FFAF42)"/>
<path id="Vector_4" d="M22.7863 20.7201C22.785 21.1715 22.4357 21.5237 21.993 21.5209C21.5516 21.5181 21.201 21.1575 21.2037 20.7117C21.2065 20.2714 21.5708 19.9039 22.0012 19.9067C22.4385 19.9081 22.7877 20.2714 22.7863 20.7201Z" fill="var(--fill-0, #FFAF42)"/>
</g>
<defs>
<clipPath id="clip0_0_20">
<rect width="36" height="26" fill="white"/>
</clipPath>
</defs>
</svg>
