<svg preserveAspectRatio="none" width="100%" height="100%" overflow="visible" style="display: block;" viewBox="0 0 29.5211 29.1111" fill="none" xmlns="http://www.w3.org/2000/svg">
<g id="Layer_1" clip-path="url(#clip0_0_4)">
<path id="Vector" d="M0 22.2304C0 21.6621 0 21.0938 0 20.5243C0.0212077 20.4743 0.0471282 20.4244 0.0624449 20.3732C0.313403 19.519 1.00147 18.9647 1.90045 18.8949C2.14433 18.8764 2.46245 18.9391 2.6109 18.8113C2.76643 18.6776 2.74522 18.3545 2.82769 18.1233C2.99618 17.6538 3.0975 17.1331 3.37792 16.7368C4.15789 15.6351 5.31607 15.3376 6.62152 15.4247C7.4062 15.477 8.19324 15.4944 8.97911 15.5258C9.04862 15.5282 9.11931 15.5107 9.18883 15.5037C9.20179 15.4817 9.21475 15.4596 9.22771 15.4375C9.14406 15.3747 9.05098 15.3201 8.97675 15.2481C7.86099 14.151 6.74641 13.0539 5.63536 11.9522C5.23359 11.5547 5.21827 11.0538 5.61062 10.6668C7.23772 9.05605 8.85422 7.43599 10.5061 5.85079C11.4086 4.98498 12.5267 4.68979 13.772 4.88155C14.4601 4.9873 15.0622 5.28598 15.6124 5.71249C15.6949 5.63695 15.7644 5.57303 15.8339 5.50912C16.2227 5.15582 16.6869 5.03263 17.1936 5.14071C17.4033 5.18603 17.5199 5.15001 17.6613 4.99776C18.8372 3.7217 20.0307 2.46308 21.2006 1.18121C21.6896 0.645448 22.1998 0.164311 22.9408 0.00160794C23.1906 0.00160794 23.4404 0.00160794 23.6902 0.00160794C23.7962 0.0387973 23.9011 0.0771488 24.0083 0.113176C24.747 0.36769 25.2572 0.856962 25.474 1.59842C25.745 2.52583 25.4763 3.31611 24.7624 3.96343C23.3414 5.25344 21.9205 6.54228 20.4949 7.82647C20.3618 7.94618 20.304 8.04612 20.3559 8.23439C20.4949 8.74923 20.3512 9.20597 19.9977 9.60227C19.9305 9.67781 19.8622 9.75218 19.7915 9.83005C20.6881 10.9655 20.9132 12.2067 20.4772 13.5664C20.6115 13.6187 20.727 13.664 20.8425 13.7082C22.1326 14.1986 23.4062 14.7204 24.6021 15.4154C25.8993 16.1697 26.8631 17.1703 27.1294 18.6904C27.1694 18.9217 27.3108 18.888 27.4616 18.8903C28.5326 18.9124 29.3632 19.6004 29.4905 20.6196C29.5447 21.0496 29.5199 21.4901 29.5105 21.9259C29.4893 22.9114 28.7518 23.7121 27.7574 23.8353C27.5135 23.8655 27.2672 23.869 27.0163 23.8865C27.0045 23.9643 26.9927 24.0201 26.9892 24.0759C26.9255 24.9638 26.8572 25.8517 26.7995 26.7407C26.7005 28.2492 25.7744 29.1116 24.2439 29.1116C19.9977 29.1116 15.7514 29.1116 11.5064 29.1116C9.37381 29.1116 7.24125 29.115 5.1087 29.1104C3.85627 29.1081 2.90546 28.2771 2.75818 27.0568C2.70752 26.6338 2.68749 26.2073 2.6545 25.7819C2.60619 25.1521 2.55789 24.521 2.5084 23.8655C2.33874 23.8655 2.19618 23.869 2.05361 23.8655C1.04153 23.8342 0.338145 23.2903 0.0577321 22.3268C0.0483064 22.2931 0.0223859 22.2641 0.00471282 22.2315L0 22.2304ZM4.24625 23.8806C4.32402 24.8999 4.39 25.8819 4.47836 26.8628C4.51253 27.2463 4.73992 27.3997 5.18764 27.3997C11.5664 27.3997 17.9441 27.3997 24.3229 27.3997C24.8095 27.3997 25.0074 27.2312 25.0487 26.7489C25.1052 26.0981 25.1441 25.4449 25.1912 24.7929C25.2124 24.4943 25.2348 24.1956 25.2572 23.8795H4.24625V23.8806ZM14.3588 6.93277C14.3588 6.93277 14.3258 6.90371 14.2857 6.87815C13.4374 6.32031 12.357 6.43536 11.6006 7.17566C10.2457 8.50518 8.89663 9.84051 7.54641 11.1735C7.50871 11.2107 7.47572 11.2525 7.43566 11.2979C7.50871 11.3734 7.56644 11.4362 7.6277 11.4954C8.82241 12.6739 10.0218 13.8488 11.2071 15.0366C11.3673 15.1981 11.5099 15.2364 11.7078 15.1586C12.7399 14.7553 13.785 14.3823 14.8018 13.943C16.0189 13.4177 17.2419 12.9772 18.6039 13.1236C18.671 13.1306 18.7924 13.0632 18.8148 13.0039C19.081 12.2938 18.9668 11.6361 18.5131 11.0096C17.6554 11.4129 16.9933 11.1317 16.3971 10.496C15.8563 9.91837 15.2754 9.37913 14.7111 8.82478C14.4283 8.54702 14.2292 8.22277 14.2363 7.82415C14.241 7.53826 14.3117 7.25236 14.3576 6.93393L14.3588 6.93277ZM25.375 18.8694C25.2925 18.4405 25.1453 18.0489 24.8378 17.7735C24.4643 17.4411 24.0649 17.1087 23.6195 16.8879C22.446 16.308 21.2478 15.7769 20.0484 15.2469C18.6805 14.6426 17.3196 14.6786 15.9588 15.3097C15.0657 15.7246 14.1644 16.1278 13.243 16.4718C11.2566 17.211 9.18883 17.3493 7.08926 17.1866C6.74523 17.1598 6.39884 17.1064 6.05598 17.1226C5.49987 17.1494 4.97439 17.3086 4.714 17.8478C4.56437 18.157 4.51489 18.5126 4.41474 18.8682H25.3762L25.375 18.8694ZM14.7429 22.1479C18.8819 22.1479 23.021 22.1479 27.16 22.1479C27.2566 22.1479 27.3521 22.1479 27.4487 22.1455C27.6725 22.1397 27.7809 22.0258 27.7786 21.805C27.7762 21.597 27.7786 21.3878 27.7786 21.1798C27.7786 20.6254 27.7526 20.5998 27.1989 20.5998C18.902 20.5998 10.6039 20.5998 2.30693 20.5998C2.23034 20.5998 2.15376 20.5998 2.076 20.5998C1.83918 20.6045 1.72607 20.7219 1.73196 20.9566C1.73668 21.1647 1.73196 21.3738 1.73196 21.5819C1.73196 22.12 1.75906 22.1467 2.29632 22.1467C6.44479 22.1467 10.5932 22.1467 14.7429 22.1467V22.1479ZM19.1458 6.72474C20.0896 5.87055 21.0086 5.0396 21.9276 4.20633C22.5002 3.68684 23.0728 3.16735 23.6431 2.6467C23.8127 2.49213 23.907 2.28527 23.7974 2.08653C23.7149 1.93778 23.5523 1.79018 23.3933 1.73324C23.1482 1.64607 22.9656 1.82272 22.8042 1.99705C21.6366 3.25451 20.4666 4.50965 19.2978 5.76479C19.1246 5.9519 18.9514 6.13901 18.7947 6.30752C18.9208 6.45628 19.0304 6.58644 19.1458 6.72358V6.72474ZM16.1096 7.70212C16.6693 8.25531 17.2218 8.80153 17.7414 9.31521C17.9959 9.07348 18.2681 8.81315 18.5061 8.58537C17.9617 8.04845 17.408 7.50107 16.8531 6.95369C16.6115 7.19658 16.3523 7.45807 16.1096 7.70212Z" fill="var(--fill-0, #FFAF42)"/>
<path id="Vector_2" d="M14.7818 17.3116C14.803 17.1536 14.8006 16.9885 14.8501 16.8386C14.9679 16.4749 15.3379 16.2413 15.7149 16.2657C16.0955 16.2901 16.4324 16.5574 16.4996 16.9386C16.5408 17.1768 16.5467 17.4302 16.5137 17.6696C16.4513 18.1228 16.0425 18.4261 15.5971 18.3901C15.1447 18.3529 14.8195 18.0066 14.8006 17.5406C14.7983 17.465 14.8006 17.3895 14.8006 17.314C14.7947 17.314 14.7888 17.3128 14.7818 17.3116Z" fill="var(--fill-0, #FFAF42)"/>
<path id="Vector_3" d="M18.1891 16.8049C18.294 16.5527 18.3588 16.2727 18.5132 16.0553C18.6946 15.7997 18.995 15.7322 19.3132 15.7962C19.8822 15.9124 20.1662 16.5318 19.9765 17.2477C19.8469 17.7381 19.3332 18.0171 18.8584 17.8555C18.4483 17.7161 18.2681 17.4058 18.2681 16.8363L18.1891 16.8038V16.8049Z" fill="var(--fill-0, #FFAF42)"/>
</g>
<defs>
<clipPath id="clip0_0_4">
<rect width="29.5211" height="29.1111" fill="white"/>
</clipPath>
</defs>
</svg>
