<svg preserveAspectRatio="none" width="100%" height="100%" overflow="visible" style="display: block;" viewBox="0 0 37 29.5932" fill="none" xmlns="http://www.w3.org/2000/svg">
<g id="Layer_1" clip-path="url(#clip0_0_8)">
<path id="Vector" d="M37 29.1372C36.8135 29.4749 36.5365 29.5978 36.1452 29.5936C34.6545 29.5766 33.1638 29.5879 31.6731 29.5865C31.0429 29.5865 30.8451 29.3873 30.8451 28.7571C30.8451 27.2282 30.8451 25.6994 30.8451 24.1706C30.8437 22.9681 30.0694 22.1882 28.874 22.1868C27.307 22.1839 25.7386 22.1839 24.1717 22.1868C22.9523 22.1882 22.1864 22.9625 22.185 24.1932C22.1836 25.722 22.185 27.2508 22.185 28.7797C22.185 29.383 21.9787 29.5865 21.3726 29.5865C19.8692 29.5879 18.3658 29.5879 16.8624 29.5865C16.2407 29.5865 16.0443 29.383 16.0428 28.7472C16.0428 27.0516 16.0315 25.3546 16.0513 23.6591C16.0556 23.3355 15.9468 23.2126 15.6529 23.1335C14.9633 22.9498 14.2823 22.735 13.549 22.5202C13.549 22.7166 13.549 22.8551 13.549 22.9936C13.549 24.9081 13.549 26.8227 13.549 28.7373C13.549 29.3943 13.3568 29.5865 12.7012 29.5865C11.6217 29.5865 10.5422 29.5865 9.46265 29.5865C8.83812 29.5865 8.6403 29.3844 8.6403 28.75C8.64172 26.4751 8.64454 24.2017 8.64737 21.9268C8.64737 21.7742 8.64737 21.6216 8.64737 21.4139C8.47357 21.4605 8.34075 21.4873 8.215 21.5312C6.96735 21.9734 6.15207 23.1165 6.14783 24.4447C6.14218 25.8831 6.14783 27.3229 6.14641 28.7627C6.14641 29.3887 5.94577 29.5851 5.31135 29.5865C3.80795 29.5865 2.30455 29.5879 0.801153 29.5865C0.21901 29.5865 0.00565188 29.3774 0.00565188 28.8023C0.00141297 23.1335 0.00282594 17.4675 0 11.8014C0 11.4864 0.045215 11.1981 0.365959 11.061C0.661269 10.9353 0.897235 11.0639 1.1332 11.2617C1.91316 11.9173 2.97854 11.8679 3.68078 11.1656C4.43813 10.4068 4.54128 9.26093 3.91816 8.47532C3.74861 8.26055 3.63557 8.04577 3.76697 7.77166C3.90121 7.49048 4.13859 7.4057 4.43107 7.40711C10.1098 7.40853 15.7899 7.40711 21.4686 7.40994C21.9604 7.40994 22.1907 7.63884 22.1765 8.16023C22.1652 8.54455 22.2811 8.66324 22.6781 8.65194C23.7407 8.62085 24.8033 8.64205 25.911 8.64205C25.911 7.72079 25.911 6.8391 25.911 5.95599C25.911 5.11528 25.9661 5.05028 26.7857 4.92735C27.7493 4.78323 28.4388 3.91284 28.3738 2.92235C28.3131 1.9799 27.4794 1.21407 26.5158 1.21407C25.5323 1.21407 24.7199 1.96718 24.6563 2.95626C24.6365 3.26287 24.556 3.51156 24.248 3.63307C23.8495 3.78991 23.4581 3.4946 23.444 3.02691C23.3959 1.30733 25.1579 -0.232811 26.8718 0.0314139C28.3823 0.264554 29.4463 1.37797 29.5748 2.86018C29.695 4.25619 28.8104 5.51515 27.3706 6.02099C27.2675 6.05773 27.1304 6.19337 27.129 6.28522C27.1092 7.05387 27.1177 7.82253 27.1177 8.67878C27.8722 8.67878 28.5999 8.67737 29.3262 8.67878C29.6865 8.67878 30.0468 8.67455 30.4043 8.69998C30.7137 8.72117 30.8677 8.61944 30.8409 8.29446C30.831 8.18001 30.8324 8.06273 30.8465 7.94828C30.8833 7.64449 31.0627 7.41842 31.3623 7.42124C32.1168 7.42831 32.8911 7.39016 33.623 7.53993C35.3878 7.90024 36.6284 9.27647 36.9209 11.0399C36.9322 11.1119 36.9732 11.1797 37 11.2504V29.1386V29.1372ZM4.93974 25.8944C4.93974 25.349 4.92844 24.8488 4.94115 24.3486C5.01321 21.5198 7.76144 19.529 10.4715 20.3414C11.479 20.6424 12.485 20.9476 13.4924 21.2486C14.3247 21.4972 15.1583 21.7431 16.04 22.0045C16.04 21.8137 16.04 21.6739 16.04 21.5354C16.04 20.7385 16.033 19.9416 16.0443 19.1446C16.0499 18.7744 16.3127 18.5159 16.6391 18.513C16.9641 18.5102 17.2184 18.7702 17.2453 19.1362C17.2523 19.2379 17.2481 19.341 17.2481 19.4442C17.2481 21.4492 17.2481 23.4542 17.2481 25.4578C17.2481 25.5948 17.2481 25.7333 17.2481 25.8774H20.9769C20.9769 25.2275 20.9642 24.6114 20.9798 23.9954C21.0221 22.3535 22.308 21.0211 23.947 20.9872C25.6553 20.9518 27.365 20.9547 29.0747 20.9872C30.5456 21.014 31.7706 22.085 31.9811 23.5319C32.0744 24.1748 32.0334 24.8375 32.0518 25.4917C32.056 25.6259 32.0518 25.7602 32.0518 25.8803H35.7566C35.7665 25.8124 35.7764 25.7743 35.7764 25.7361C35.7764 21.0069 35.7891 16.2777 35.7693 11.5485C35.7622 9.97872 34.386 8.65618 32.8091 8.6152C32.291 8.60201 31.9873 8.8507 31.8978 9.36125C31.8907 9.3994 31.8907 9.43896 31.878 9.47429C31.1475 11.6319 29.7147 13.018 27.4483 13.4546C27.1516 13.5111 27.112 13.6256 27.1135 13.8785C27.1219 15.4469 27.1177 17.0139 27.1177 18.5823C27.1177 18.7744 27.1304 18.9694 27.1092 19.1602C27.0739 19.4795 26.8125 19.7112 26.5158 19.7127C26.2205 19.7127 25.9605 19.4809 25.9181 19.163C25.9025 19.0486 25.911 18.9327 25.911 18.8168C25.911 17.1594 25.9082 15.502 25.9138 13.8432C25.9138 13.627 25.8898 13.5083 25.6214 13.4617C23.2914 13.0632 21.5435 11.3733 21.0928 9.05463C21.0179 8.66889 20.8766 8.60531 20.5276 8.60531C15.6444 8.61661 10.7612 8.61238 5.87795 8.61238C5.72676 8.61238 5.57416 8.61238 5.39048 8.61238C5.72394 9.90948 5.45265 11.0342 4.56248 11.9654C3.64122 12.9304 2.4953 13.1141 1.24483 12.7354V25.8916H4.94115L4.93974 25.8944ZM22.6513 9.89111C23.1416 11.3154 24.9121 12.3794 26.7079 12.3398C28.2424 12.3059 29.9775 11.1571 30.3562 9.89111H22.6513ZM9.87383 21.4125V25.8902H12.338C12.338 24.6807 12.3409 23.4924 12.3296 22.304C12.3296 22.2348 12.2278 22.1302 12.1529 22.1062C11.4111 21.8717 10.6651 21.6513 9.87241 21.4139L9.87383 21.4125ZM1.22222 28.3558H4.903V27.1477H1.22222V28.3558ZM20.9586 27.1435H17.2707V28.3459H20.9586V27.1435ZM35.7622 27.1435H32.0744V28.3445H35.7622V27.1435ZM12.3112 28.3558V27.1406H9.86535V28.3558H12.3112Z" fill="var(--fill-0, #FFAF42)"/>
<path id="Vector_2" d="M28.9913 16.0104C28.6833 16.0174 28.3993 15.7518 28.3823 15.4409C28.3639 15.1188 28.6437 14.8192 28.9701 14.8122C29.2937 14.8051 29.5847 15.0947 29.5805 15.4197C29.5763 15.7292 29.3022 16.0047 28.9927 16.0118L28.9913 16.0104Z" fill="var(--fill-0, #FFAF42)"/>
<path id="Vector_3" d="M28.963 17.2792C29.2852 17.2679 29.5805 17.5547 29.5805 17.8797C29.5805 18.1877 29.3092 18.4675 28.9998 18.4774C28.6932 18.4873 28.4063 18.2259 28.3837 17.915C28.3611 17.5943 28.6381 17.2905 28.9644 17.2792H28.963Z" fill="var(--fill-0, #FFAF42)"/>
</g>
<defs>
<clipPath id="clip0_0_8">
<rect width="37" height="29.5932" fill="white"/>
</clipPath>
</defs>
</svg>
