<svg preserveAspectRatio="none" width="100%" height="100%" overflow="visible" style="display: block;" viewBox="0 0 27.2352 32" fill="none" xmlns="http://www.w3.org/2000/svg">
<g id="Layer_1" clip-path="url(#clip0_0_12)">
<path id="Vector" d="M24.1792 0C24.746 0.221475 24.9763 0.631892 24.9562 1.24126C24.9287 2.12591 24.95 3.01181 24.9487 3.89771C24.9475 4.60593 24.6935 4.925 23.989 5.09142C23.9127 5.94729 24.1429 6.71182 24.7085 7.36498C25.1865 7.91554 25.6757 8.45609 26.1775 8.98538C26.9107 9.75991 27.2348 10.6746 27.2335 11.7369C27.226 17.3101 27.231 22.882 27.2285 28.4551C27.2285 29.6251 26.5791 30.5147 25.5243 30.7763C25.2653 30.8401 24.9888 30.8563 24.7197 30.8576C21.7605 30.8626 18.8025 30.8626 15.8432 30.8576C15.6193 30.8576 15.4679 30.9076 15.3164 31.0953C14.8322 31.6972 14.184 31.9962 13.4083 31.9987C11.908 32.0025 10.4077 32.0038 8.90744 31.9987C7.47473 31.9937 6.4562 31.0215 6.35985 29.5813C6.35735 29.5525 6.34859 29.5237 6.33358 29.4512C6.00199 29.7352 5.68917 30.003 5.3776 30.272C4.93591 30.6524 4.50172 31.044 4.05251 31.4144C2.98893 32.2903 1.49867 32.1727 0.601505 31.1504C-0.281892 30.1431 -0.193052 28.6128 0.835492 27.6981C1.99542 26.6671 3.17537 25.6586 4.35532 24.6513C4.93215 24.1595 5.47771 24.0257 6.43618 24.1007V23.7003C6.43618 19.7213 6.44244 15.7422 6.43117 11.7632C6.42867 10.6896 6.754 9.76617 7.49726 8.98538C7.99902 8.45734 8.48701 7.91429 8.965 7.36373C9.52557 6.71932 9.74454 5.9573 9.69324 5.1152C8.89242 4.85493 8.721 4.61719 8.721 3.77884C8.721 2.94549 8.74602 2.11089 8.71224 1.2788C8.68721 0.65942 8.90494 0.233988 9.48302 0.00125127H24.1729L24.1792 0ZM15.8958 30.0918C15.9546 30.0968 16.0247 30.1081 16.096 30.1081C19.0227 30.1081 21.9494 30.1131 24.8762 30.1068C25.8622 30.1043 26.4803 29.4649 26.4803 28.4652C26.4815 22.852 26.4803 17.24 26.4815 11.6268C26.4815 10.8435 26.2363 10.1591 25.702 9.57973C25.2152 9.05169 24.736 8.5149 24.2518 7.98561C23.7162 7.40127 23.3784 6.72058 23.2633 5.93728C23.2232 5.662 23.2232 5.38172 23.2045 5.09142H10.4815C10.4728 5.18276 10.4615 5.25409 10.4615 5.32541C10.4565 6.40901 10.0611 7.32869 9.3166 8.11199C8.85739 8.59498 8.4232 9.10174 7.97024 9.58974C7.43344 10.1691 7.1907 10.8535 7.1907 11.6368C7.19195 15.8023 7.19195 19.9678 7.18819 24.132C7.18819 24.3159 7.23574 24.4348 7.3934 24.5437C7.96398 24.9366 8.29682 25.4896 8.3744 26.1753C8.40818 26.4781 8.38065 26.7885 8.38065 27.0737C10.1262 27.0737 11.8542 27.0462 13.5809 27.0838C14.6908 27.1075 15.6042 27.9146 15.8332 29.0007C15.9045 29.3398 15.877 29.7002 15.897 30.0918H15.8958ZM11.5138 31.248C12.1695 31.248 12.7926 31.2542 13.4158 31.2467C14.3968 31.2342 15.1525 30.481 15.1488 29.5287C15.145 28.5878 14.4018 27.8395 13.437 27.8208C12.8652 27.8095 12.2921 27.817 11.7203 27.8208C11.6527 27.8208 11.5839 27.842 11.5138 27.8533V31.2492V31.248ZM5.04852 29.5738C4.28775 28.6941 3.5545 27.8483 2.80124 26.9786C2.25318 27.4616 1.69762 27.9008 1.20337 28.4013C0.591495 29.0195 0.609012 30.028 1.1871 30.6737C1.7802 31.3368 2.77121 31.4582 3.47192 30.9164C4.00621 30.5035 4.50297 30.043 5.04977 29.575L5.04852 29.5738ZM3.37307 26.4907C4.13384 27.369 4.86709 28.2149 5.62035 29.0858C6.16716 28.6003 6.72397 28.1611 7.21197 27.6568C7.8351 27.0124 7.80632 26.0052 7.20946 25.3633C6.59634 24.7038 5.60283 24.6175 4.89461 25.1868C4.3841 25.596 3.89985 26.0377 3.37182 26.4919L3.37307 26.4907ZM10.7355 31.2442V27.8633C9.97352 27.8633 9.219 27.7945 8.48451 27.8808C7.63239 27.9822 7.06056 28.8055 7.11937 29.6639C7.17568 30.4935 7.86013 31.1967 8.70473 31.238C9.36916 31.2693 10.0348 31.2442 10.7355 31.2442ZM14.8948 4.30562V0.777039H12.5824V4.30562H14.8948ZM21.0911 4.30062V0.773285H18.7712V4.30187H21.0911V4.30062ZM15.6818 4.30062H17.9879V0.773285H15.6818V4.30187V4.30062ZM11.8004 0.750762C11.1034 0.750762 10.4377 0.750762 9.77332 0.750762C9.58563 0.750762 9.47927 0.843356 9.47927 1.03605C9.47802 2.03582 9.47176 3.03433 9.48803 4.0341C9.48928 4.12919 9.62942 4.30062 9.70825 4.30312C10.4015 4.32439 11.0947 4.31563 11.8004 4.31563V0.750762ZM21.8819 0.750762V4.31939C22.5776 4.31939 23.2533 4.32064 23.9277 4.31939C24.1266 4.31939 24.198 4.19301 24.198 4.01157C24.198 3.03308 24.198 2.05334 24.198 1.07484C24.198 0.85712 24.0966 0.749511 23.8739 0.750762C23.2182 0.753265 22.5638 0.750762 21.8806 0.750762H21.8819Z" fill="var(--fill-0, #FFAF42)"/>
<path id="Vector_2" d="M16.8346 25.9952C14.8764 25.9952 12.9181 25.9952 10.9599 25.9952C10.1315 25.9952 9.7499 25.6185 9.7499 24.7964C9.7499 20.9851 9.7499 17.1724 9.7499 13.3611C9.7499 12.5402 10.1315 12.1536 10.9511 12.1536C14.8776 12.1523 18.8053 12.1523 22.7318 12.1536C23.5389 12.1536 23.9243 12.539 23.9243 13.336C23.9243 17.1587 23.9243 20.9801 23.9243 24.8027C23.9243 25.6085 23.5414 25.9952 22.7406 25.9952C20.7723 25.9952 18.8028 25.9952 16.8346 25.9952ZM16.8258 25.2456C18.7741 25.2456 20.7223 25.2456 22.6705 25.2456C23.1297 25.2456 23.1735 25.2031 23.1735 24.7501C23.1735 20.9688 23.1735 17.1875 23.1735 13.4061C23.1735 12.9456 23.1322 12.9019 22.6793 12.9019C18.7828 12.9019 14.8864 12.9019 10.9899 12.9019C10.5507 12.9019 10.5007 12.9519 10.5007 13.3811C10.5007 17.1724 10.5007 20.9638 10.5007 24.7564C10.5007 25.1906 10.5532 25.2444 10.9824 25.2444C12.9306 25.2444 14.8789 25.2444 16.8271 25.2444L16.8258 25.2456Z" fill="var(--fill-0, #FFAF42)"/>
<path id="Vector_3" d="M19.9715 21.2528C19.9415 21.4681 19.9277 21.6883 19.8777 21.8985C19.6612 22.8169 19.0831 23.2912 18.1509 23.2123C17.2663 23.1372 16.3929 23.146 15.5082 23.2098C14.3621 23.2937 13.6902 22.5291 13.6902 21.2578C13.6902 19.6725 15.0278 18.1522 16.6031 17.9795C16.8947 17.9482 17.2087 17.9908 17.494 18.0671C18.8804 18.435 19.9465 19.8301 19.9703 21.2516L19.9715 21.2528ZM19.2158 21.2528C19.197 20.1217 18.2435 18.9517 17.1637 18.7478C15.7973 18.4913 14.2707 20.0316 14.4597 21.4781C14.5648 22.2851 14.8651 22.5504 15.6659 22.4503C16.458 22.3502 17.2413 22.3364 18.0283 22.4616C18.1096 22.4741 18.1947 22.4741 18.2773 22.4716C18.7841 22.4516 19.0168 22.2676 19.1369 21.7771C19.1795 21.6069 19.1895 21.428 19.2145 21.2541L19.2158 21.2528Z" fill="var(--fill-0, #FFAF42)"/>
<path id="Vector_4" d="M19.1757 18.4775C19.1695 17.6592 19.8952 16.8884 20.7135 16.8434C21.2754 16.8121 21.7208 17.1637 21.8222 17.7205C21.9861 18.6227 21.0789 19.6274 20.163 19.5574C19.5849 19.5136 19.1807 19.0719 19.177 18.4775H19.1757ZM19.9277 18.415C19.909 18.699 20.0741 18.8479 20.3494 18.7966C20.701 18.7303 21.0464 18.3536 21.0827 17.997C21.1127 17.7067 20.9638 17.5616 20.6798 17.6041C20.3131 17.6592 19.9515 18.0496 19.9277 18.415Z" fill="var(--fill-0, #FFAF42)"/>
<path id="Vector_5" d="M14.4972 18.475C14.4922 19.2045 13.8866 19.6887 13.1746 19.5336C12.4664 19.3797 11.8996 18.7403 11.8383 18.0296C11.7732 17.2763 12.3663 16.732 13.1146 16.8584C13.8778 16.986 14.5022 17.7155 14.4972 18.475ZM13.7465 18.4412C13.739 18.0671 13.3686 17.6567 12.9907 17.6041C12.7179 17.5653 12.5803 17.6942 12.594 17.9733C12.6116 18.3361 12.9682 18.734 13.3323 18.7991C13.5951 18.8454 13.7527 18.7103 13.7465 18.4412Z" fill="var(--fill-0, #FFAF42)"/>
<path id="Vector_6" d="M16.6156 16.5193C16.6156 17.1211 16.3028 17.6254 15.8323 17.7893C15.3994 17.9395 14.9189 17.7793 14.5811 17.3726C14.1469 16.8484 14.0718 16.03 14.4059 15.4695C14.7612 14.8726 15.4745 14.7387 16.0175 15.1717C16.3891 15.4682 16.5643 15.8699 16.6156 16.3328C16.6219 16.3941 16.6156 16.458 16.6156 16.5205V16.5193ZM15.9087 16.4204C15.8236 16.2478 15.7485 16.0075 15.6008 15.8223C15.4044 15.5758 15.1429 15.6371 15.0152 15.9212C14.8714 16.239 14.9677 16.7195 15.2217 16.9585C15.4419 17.1649 15.6747 17.1274 15.7948 16.8559C15.8436 16.7445 15.8586 16.6194 15.9087 16.4204Z" fill="var(--fill-0, #FFAF42)"/>
<path id="Vector_7" d="M17.0498 16.4905C17.0698 15.9837 17.2338 15.5358 17.6329 15.1979C18.1847 14.7325 18.9292 14.8689 19.2846 15.4945C19.655 16.1476 19.4823 17.0899 18.9004 17.5703C18.5801 17.8344 18.216 17.9257 17.8218 17.7768C17.3526 17.5991 17.1549 17.2075 17.0686 16.7445C17.0536 16.6632 17.0561 16.5781 17.0511 16.4905H17.0498ZM18.8066 16.294C18.7866 16.279 18.7666 16.264 18.7465 16.2503C18.719 16.1414 18.704 16.025 18.6602 15.9224C18.5376 15.6384 18.2911 15.5983 18.0683 15.8186C17.8056 16.0788 17.723 16.5731 17.8932 16.8846C18.012 17.1036 18.2398 17.1749 18.3999 16.9885C18.5726 16.7883 18.674 16.528 18.8079 16.294H18.8066Z" fill="var(--fill-0, #FFAF42)"/>
</g>
<defs>
<clipPath id="clip0_0_12">
<rect width="27.2352" height="32" fill="white"/>
</clipPath>
</defs>
</svg>
