<svg width="40" height="40" viewBox="0 0 40 40" fill="none" xmlns="http://www.w3.org/2000/svg">
<path fill-rule="evenodd" clip-rule="evenodd" d="M23.0746 4.38539C24.9218 6.23257 24.9218 9.22744 23.0746 11.0746C21.2274 12.9218 18.2326 12.9218 16.3854 11.0746C14.5382 9.22744 14.5382 6.23257 16.3854 4.38539C18.2326 2.5382 21.2274 2.5382 23.0746 4.38539Z" fill="black" stroke="black" stroke-width="2" stroke-linecap="round" stroke-linejoin="round"/>
<path fill-rule="evenodd" clip-rule="evenodd" d="M10 34.9993H6.66667C5.74667 34.9993 5 34.2527 5 33.3327V23.3327C5 22.4127 5.74667 21.666 6.66667 21.666H10C10.92 21.666 11.6667 22.4127 11.6667 23.3327V33.3327C11.6667 34.2527 10.92 34.9993 10 34.9993Z" stroke="black" stroke-width="2" stroke-linecap="round" stroke-linejoin="round"/>
<path d="M21.6641 28.3338H25.5524C26.2741 28.3338 26.9757 28.1004 27.5524 27.6671L31.5791 24.6471C32.5841 23.8938 33.9907 23.9938 34.8791 24.8821C35.8657 25.8688 35.8657 27.4671 34.8791 28.4521L31.4241 31.9071C30.4941 32.8371 29.3074 33.4721 28.0174 33.7304L23.1341 34.7071C22.1657 34.9004 21.1674 34.8771 20.2091 34.6371L15.7924 33.5338C15.2641 33.4004 14.7224 33.3338 14.1774 33.3338H11.6641" stroke="black" stroke-width="2" stroke-linecap="round" stroke-linejoin="round"/>
<path d="M21.6641 28.3346H24.1391C25.5341 28.3346 26.6641 27.2046 26.6641 25.8096V25.3046C26.6641 24.1463 25.8757 23.1363 24.7524 22.8563L20.9324 21.9013C20.3107 21.7463 19.6741 21.668 19.0341 21.668C17.4891 21.668 15.9774 22.1246 14.6924 22.983L11.6641 25.0013" stroke="black" stroke-width="2" stroke-linecap="round" stroke-linejoin="round"/>
<path fill-rule="evenodd" clip-rule="evenodd" d="M28.6137 8.59242C30.4609 10.4396 30.4609 13.4345 28.6137 15.2817C26.7665 17.1288 23.7716 17.1288 21.9245 15.2817C20.0773 13.4345 20.0773 10.4396 21.9245 8.59242C23.7716 6.74524 26.7665 6.74524 28.6137 8.59242Z" fill="white"/>
<path d="M28.6137 8.59242C30.4609 10.4396 30.4609 13.4345 28.6137 15.2817C26.7665 17.1288 23.7716 17.1288 21.9245 15.2817C20.0773 13.4345 20.0773 10.4396 21.9245 8.59242C23.7716 6.74524 26.7665 6.74524 28.6137 8.59242" stroke="white" stroke-width="2" stroke-linecap="round" stroke-linejoin="round"/>
</svg>
