<svg width="40" height="40" viewBox="0 0 40 40" fill="none" xmlns="http://www.w3.org/2000/svg">
<path fill-rule="evenodd" clip-rule="evenodd" d="M30.6904 5.97631C31.9921 7.27806 31.9921 9.38861 30.6904 10.6904C29.3886 11.9921 27.2781 11.9921 25.9763 10.6904C24.6746 9.38861 24.6746 7.27806 25.9763 5.97631C27.2781 4.67456 29.3886 4.67456 30.6904 5.97631Z" fill="#8D8AFF"/>
<path d="M30.6904 5.97631C31.9921 7.27806 31.9921 9.38861 30.6904 10.6904C29.3886 11.9921 27.2781 11.9921 25.9763 10.6904C24.6746 9.38861 24.6746 7.27806 25.9763 5.97631C27.2781 4.67456 29.3886 4.67456 30.6904 5.97631" stroke="#8D8AFF" stroke-width="2" stroke-linecap="round" stroke-linejoin="round"/>
<path d="M18.1016 30.8333H21.8516" stroke="black" stroke-width="2" stroke-linecap="round" stroke-linejoin="round"/>
<path d="M28.3307 16.6654V31.6654C28.3307 33.507 26.8391 34.9987 24.9974 34.9987H14.9974C13.1557 34.9987 11.6641 33.507 11.6641 31.6654V11.6654C11.6641 9.8237 13.1557 8.33203 14.9974 8.33203H19.9974" stroke="black" stroke-width="2" stroke-linecap="round" stroke-linejoin="round"/>
</svg>
