<svg width="42" height="42" viewBox="0 0 42 42" fill="none" xmlns="http://www.w3.org/2000/svg">
<path fill-rule="evenodd" clip-rule="evenodd" d="M26 14.332H34.3368C35.2577 14.332 36.0042 15.0785 36.0042 15.9994V32.673C36.0042 33.5939 35.2577 34.3404 34.3368 34.3404H26V14.332Z" stroke="black" stroke-width="2" stroke-linecap="round" stroke-linejoin="round"/>
<path fill-rule="evenodd" clip-rule="evenodd" d="M7.66345 7.66211H24.3371C25.2579 7.66211 26.0044 8.40861 26.0044 9.32947V34.3399H7.66345C6.7426 34.3399 5.99609 33.5934 5.99609 32.6725V9.32947C5.99609 8.40861 6.7426 7.66211 7.66345 7.66211Z" fill="#CDE06A" stroke="#CDE06A" stroke-width="2" stroke-linecap="round" stroke-linejoin="round"/>
<path d="M12.6618 14.1233C12.5467 14.1233 12.4534 14.2166 12.4534 14.3317C12.4534 14.4468 12.5467 14.5401 12.6618 14.5401C12.7769 14.5401 12.8702 14.4468 12.8702 14.3317C12.8702 14.2166 12.7769 14.1233 12.6618 14.1233" stroke="black" stroke-width="2" stroke-linecap="round" stroke-linejoin="round"/>
<path d="M19.3337 14.1233C19.2186 14.1233 19.1253 14.2166 19.1253 14.3317C19.1253 14.4468 19.2186 14.5401 19.3337 14.5401C19.4488 14.5401 19.5421 14.4468 19.5421 14.3317C19.5421 14.2166 19.4488 14.1233 19.3337 14.1233" stroke="black" stroke-width="2" stroke-linecap="round" stroke-linejoin="round"/>
<path d="M12.6618 20.7932C12.5467 20.7932 12.4534 20.8865 12.4534 21.0016C12.4534 21.1168 12.5467 21.2101 12.6618 21.2101C12.7769 21.2101 12.8702 21.1168 12.8702 21.0016C12.8702 20.8865 12.7769 20.7932 12.6618 20.7932" stroke="black" stroke-width="2" stroke-linecap="round" stroke-linejoin="round"/>
<path d="M19.3337 20.7913C19.2186 20.7913 19.1253 20.8846 19.1253 20.9997C19.1253 21.1148 19.2186 21.2081 19.3337 21.2081C19.4488 21.2081 19.5421 21.1148 19.5421 20.9997C19.5421 20.8846 19.4488 20.7913 19.3337 20.7913" stroke="black" stroke-width="2" stroke-linecap="round" stroke-linejoin="round"/>
<path d="M12.6618 27.4612C12.5467 27.4612 12.4534 27.5545 12.4534 27.6696C12.4534 27.7847 12.5467 27.878 12.6618 27.878C12.7769 27.878 12.8702 27.7847 12.8702 27.6696C12.8702 27.5545 12.7769 27.4612 12.6618 27.4612" stroke="black" stroke-width="2" stroke-linecap="round" stroke-linejoin="round"/>
<path d="M19.3337 27.4612C19.2186 27.4612 19.1253 27.5545 19.1253 27.6696C19.1253 27.7847 19.2186 27.878 19.3337 27.878C19.4488 27.878 19.5421 27.7847 19.5421 27.6696C19.5421 27.5545 19.4488 27.4612 19.3337 27.4612" stroke="black" stroke-width="2" stroke-linecap="round" stroke-linejoin="round"/>
<path d="M31.0056 20.7913C30.8904 20.7913 30.7971 20.8846 30.7971 20.9997C30.7971 21.1148 30.8904 21.2081 31.0056 21.2081C31.1207 21.2081 31.214 21.1148 31.214 20.9997C31.214 20.8846 31.1207 20.7913 31.0056 20.7913" stroke="black" stroke-width="2" stroke-linecap="round" stroke-linejoin="round"/>
<path d="M31.0056 27.4612C30.8904 27.4612 30.7971 27.5545 30.7971 27.6696C30.7971 27.7847 30.8904 27.878 31.0056 27.878C31.1207 27.878 31.214 27.7847 31.214 27.6696C31.214 27.5545 31.1207 27.4612 31.0056 27.4612" stroke="black" stroke-width="2" stroke-linecap="round" stroke-linejoin="round"/>
</svg>
