<svg width="40" height="40" viewBox="0 0 40 40" fill="none" xmlns="http://www.w3.org/2000/svg">
<path d="M26.6693 31.667V33.3336C26.6693 34.2536 25.9226 35.0003 25.0026 35.0003H5.0026C4.0826 35.0003 3.33594 34.2536 3.33594 33.3336V31.667V31.6403C3.33594 26.597 9.09927 23.3203 15.0026 23.3203C20.9059 23.3203 26.6693 26.5986 26.6693 31.6403" stroke="black" stroke-width="2" stroke-linecap="round" stroke-linejoin="round"/>
<path d="M19.115 8.37065C21.3879 10.6435 21.3879 14.3285 19.115 16.6014C16.8422 18.8742 13.1572 18.8742 10.8843 16.6014C8.61147 14.3285 8.61147 10.6435 10.8843 8.37065C13.1572 6.0978 16.8422 6.0978 19.115 8.37065" stroke="black" stroke-width="2" stroke-linecap="round" stroke-linejoin="round"/>
<path d="M33.5284 8.4668C34.9101 8.4668 35.8378 9.68357 35.8378 10.817C35.8378 13.1167 31.9882 14.9998 31.918 14.9998" stroke="black" stroke-width="1.2" stroke-linecap="round" stroke-linejoin="round"/>
<path d="M30.3094 8.4668C28.9277 8.4668 28 9.68357 28 10.817C28 13.1167 31.8496 14.9998 31.9198 14.9998" stroke="black" stroke-width="1.2" stroke-linecap="round" stroke-linejoin="round"/>
<path d="M31.9216 9.16614C32.2221 8.83786 32.7415 8.46711 33.532 8.46711" stroke="black" stroke-width="1.2" stroke-linecap="round" stroke-linejoin="round"/>
<path d="M31.919 9.16583C31.6185 8.83754 31.0991 8.4668 30.3086 8.4668" stroke="black" stroke-width="1.2" stroke-linecap="round" stroke-linejoin="round"/>
<rect x="23" y="1.66602" width="5.97883" height="3.73677" rx="1.86839" fill="white"/>
<rect x="25" y="5" width="2" height="1" fill="white"/>
<path d="M27.2399 1.35547C28.2936 1.35547 29.0011 2.28343 29.0011 3.14787C29.0011 4.90167 26.0653 6.33783 26.0117 6.33783" stroke="white" stroke-width="0.747354" stroke-linecap="round" stroke-linejoin="round"/>
<path d="M24.7847 1.35547C23.7309 1.35547 23.0234 2.28343 23.0234 3.14787C23.0234 4.90167 25.9593 6.33783 26.0129 6.33783" stroke="white" stroke-width="0.747354" stroke-linecap="round" stroke-linejoin="round"/>
<path d="M26.0126 1.88935C26.2418 1.63899 26.6379 1.35624 27.2408 1.35624" stroke="white" stroke-width="0.747354" stroke-linecap="round" stroke-linejoin="round"/>
<path d="M26.0133 1.88858C25.7841 1.63822 25.388 1.35547 24.7852 1.35547" stroke="white" stroke-width="0.747354" stroke-linecap="round" stroke-linejoin="round"/>
<rect x="28" y="9" width="8" height="4" rx="2" fill="black"/>
<rect x="29" y="12" width="5" height="2" rx="1" fill="black"/>
<rect x="31" y="15" width="5" height="2" rx="1" transform="rotate(-90 31 15)" fill="black"/>
</svg>
